<svg version="1.2" baseProfile="tiny-ps" xmlns="http://www.w3.org/2000/svg" viewBox="0 0 64 64" width="64" height="64">
	<title>cart-svg</title>
	<style>
		tspan { white-space:pre }
		.shp0 { fill: #000000 }
	</style>
	<g id="Layer">
		<path id="Layer" fill-rule="evenodd" class="shp0" d="M11.95 13.94L16.61 13.94C20 13.94 21.33 14.02 21.56 14.28C21.7 14.48 21.99 15.59 22.19 16.7L22.53 18.77L38.12 18.77C46.71 18.77 53.9 18.86 54.16 18.94C54.41 19.03 54.61 19.43 54.61 19.83C54.61 21.19 51.74 37.66 51.43 38.03C51.2 38.31 48.27 38.4 37.09 38.4L23.07 38.4L22.3 39.08C21.25 39.96 21.22 41.47 22.19 42.52L22.84 43.24L38.17 43.24C48.21 43.24 53.7 43.35 54.07 43.52C54.67 43.86 54.78 44.94 54.27 45.45C54.04 45.68 52.91 45.8 51.09 45.8L48.24 45.8L48.98 46.56C49.98 47.64 50.35 48.44 50.35 49.49C50.35 51.6 48.73 53.56 46.65 53.9C45.14 54.16 43.04 53.16 42.3 51.85C41.3 50.09 41.78 47.3 43.29 46.25C43.89 45.82 43.46 45.8 38 45.8L32.09 45.8L32.94 46.79C36.01 50.26 32.28 55.38 28.07 53.53C25.26 52.28 24.58 48.75 26.74 46.59L27.53 45.8L25.37 45.8C22.81 45.8 21.28 45.2 20.11 43.83C18.32 41.7 19 38.12 21.48 36.66C22.02 36.32 22.47 35.87 22.47 35.61C22.47 35.1 20 17.92 19.77 16.84C19.63 16.24 19.51 16.21 15.96 16.21C11.95 16.21 11.43 16.01 11.78 14.65L11.95 13.94ZM52.14 21.05L22.76 21.05L22.9 21.67C22.95 22.04 23.41 25.09 23.89 28.44C24.38 31.8 24.83 34.84 24.89 35.19L25.03 35.84L49.66 35.84L50.74 29.21C51.34 25.6 51.88 22.27 51.97 21.82L52.14 21.05ZM28.39 48.3C27.22 49.29 28.19 51.48 29.81 51.48C31.37 51.48 32.23 49.55 31.18 48.38C30.32 47.45 29.35 47.42 28.39 48.3ZM44.4 48.61C43.21 50.8 46.11 52.59 47.59 50.57C48.07 49.92 48.1 49.69 47.82 48.95C47.19 47.47 45.11 47.27 44.4 48.61Z" />
	</g>
</svg>